<?xml version="1.0" encoding="UTF-8" standalone="no"?>
<!DOCTYPE svg PUBLIC "-//W3C//DTD SVG 1.1//EN" "http://www.w3.org/Graphics/SVG/1.1/DTD/svg11.dtd">
<svg width="100%" height="100%" viewBox="0 0 4200 2550" version="1.1" xmlns="http://www.w3.org/2000/svg" xmlns:xlink="http://www.w3.org/1999/xlink" xml:space="preserve" xmlns:serif="http://www.serif.com/" style="fill-rule:evenodd;clip-rule:evenodd;stroke-linecap:round;stroke-linejoin:round;stroke-miterlimit:1.5;">
    <g>
        <g transform="matrix(1,0,0,0.823417,-80.816479,135.943716)">
            <path d="M4009,564.5L4009,1085.5C4009,1229.274 3912.886,1346 3794.5,1346L566.5,1346C448.114,1346 352,1229.274 352,1085.5L352,564.5C352,420.726 448.114,304 566.5,304L3794.5,304C3912.886,304 4009,420.726 4009,564.5Z" style="fill:rgb(235,235,235);stroke:black;stroke-width:43.21px;"/>
        </g>
        <g transform="matrix(0.957653,0,0,1,152.492341,0)">
            <path d="M3601,386.262C3601,386.262 3794.455,431.104 3860.904,600L3860.904,1029C3860.904,1029 3872.091,1136.308 3601,1244.262C3601,1244.262 3897.688,1285.33 3928.816,1029C3959.945,772.67 3928.816,600 3928.816,600C3928.816,600 3912.036,355.369 3601,386.262" style="fill:rgb(153,149,149);"/>
        </g>
        <path d="M3721,1244.262L3721,584" style="fill:rgb(153,149,149);"/>
        <g transform="matrix(1,0,0,1,0.632957,47.131167)">
            <rect x="271.816" y="721" width="3656.367" height="94.262" style="fill:rgb(153,149,149);"/>
        </g>
        <g transform="matrix(-1,0,0,-1,4201.265914,1630.524667)">
            <path d="M3928.184,768.131L3928.816,603C3928.816,603 3927.271,399.797 3721,386.262L3721,1244.262C3721,1244.262 3914.37,1239.335 3928.816,1030L3928.184,768.131Z" style="fill:rgb(153,149,149);"/>
        </g>
    </g>
    <g transform="matrix(1,0,0,1,1.265914,1053)">
        <g transform="matrix(1,0,0,0.823417,-80.816479,135.943716)">
            <path d="M4009,564.5L4009,1085.5C4009,1229.274 3912.886,1346 3794.5,1346L566.5,1346C448.114,1346 352,1229.274 352,1085.5L352,564.5C352,420.726 448.114,304 566.5,304L3794.5,304C3912.886,304 4009,420.726 4009,564.5Z" style="fill:rgb(235,235,235);stroke:black;stroke-width:43.21px;"/>
        </g>
        <g transform="matrix(0.957653,0,0,1,152.492341,0)">
            <path d="M3601,386.262C3601,386.262 3794.455,431.104 3860.904,600L3860.904,1029C3860.904,1029 3872.091,1136.308 3601,1244.262C3601,1244.262 3897.688,1285.33 3928.816,1029C3959.945,772.67 3928.816,600 3928.816,600C3928.816,600 3912.036,355.369 3601,386.262" style="fill:rgb(153,149,149);"/>
        </g>
        <path d="M3721,1244.262L3721,584" style="fill:rgb(153,149,149);"/>
        <g transform="matrix(1,0,0,1,0.632957,47.131167)">
            <rect x="271.816" y="721" width="3656.367" height="94.262" style="fill:rgb(153,149,149);"/>
        </g>
        <g transform="matrix(-1,0,0,-1,4201.265914,1630.524667)">
            <path d="M3928.184,768.131L3928.816,603C3928.816,603 3927.271,399.797 3721,386.262L3721,1244.262C3721,1244.262 3914.37,1239.335 3928.816,1030L3928.184,768.131Z" style="fill:rgb(153,149,149);"/>
        </g>
        <g transform="matrix(-0.000211,0.032342,-0.032342,-0.000211,3731.648285,545.744192)">
            <g transform="matrix(1,0,0,1,-1666.666667,-1666.666667)">
                <clipPath id="_clip1">
                    <rect x="0" y="0" width="3333.333" height="3333.333"/>
                </clipPath>
                <g clip-path="url(#_clip1)">
                    <g transform="matrix(104.166667,0,0,104.166667,0,0)">
                        <g id="steering_x5F_wheel">
                            <path d="M16,0C7.164,0 0,7.164 0,16C0,24.836 7.164,32 16,32C24.836,32 32,24.836 32,16C32,7.164 24.836,0 16,0ZM16,4C21.207,4 25.605,7.354 27.266,12L4.734,12C6.395,7.354 10.793,4 16,4ZM16,18C14.895,18 14,17.105 14,16C14,14.895 14.895,14 16,14C17.105,14 18,14.895 18,16C18,17.105 17.105,18 16,18ZM4,16C9.465,16 13.891,21.266 13.984,27.797C8.328,26.828 4,21.926 4,16ZM18.016,27.797C18.109,21.266 22.535,16 28,16C28,21.926 23.672,26.828 18.016,27.797Z" style="fill:rgb(3,1,4);fill-rule:nonzero;"/>
                        </g>
                    </g>
                </g>
            </g>
        </g>
    </g>
    <g transform="matrix(1,0,0,1,15.550041,44.187429)">
        <g transform="matrix(100,0,0,100,2311.715874,805.574905)">
        </g>
        <text x="1861.916px" y="805.575px" style="font-family:'Oxanium-ExtraBold', 'Oxanium';font-weight:800;font-size:100px;">2DO PISO</text>
    </g>
    <g transform="matrix(1,0,0,1,13.967648,1097.187429)">
        <g transform="matrix(100,0,0,100,2297.615874,805.574905)">
        </g>
        <text x="1861.916px" y="805.575px" style="font-family:'Oxanium-ExtraBold', 'Oxanium';font-weight:800;font-size:100px;">1ER PISO</text>
    </g>
    <path d="M3601,1436.565L3601,2299.681" style="fill:none;stroke:black;stroke-width:27.08px;"/>
</svg>
